<?xml version="1.0" encoding="UTF-8" standalone="no"?>
<svg width="600px" height="341px" viewBox="0 0 600 341" version="1.1" xmlns="http://www.w3.org/2000/svg" xmlns:xlink="http://www.w3.org/1999/xlink">
    <!-- Generator: Sketch 3.7.1 (28215) - http://www.bohemiancoding.com/sketch -->
    <title>Page 1</title>
    <desc>Created with Sketch.</desc>
    <defs>
        <polygon id="path-1" points="297.1299 0.099 0.7619 0.099 0.7619 45.4572 297.1299 45.4572 297.1299 0.099"></polygon>
        <polygon id="path-3" points="0 0.8999 0 152.1679 146.3958 152.1679 146.3958 0.8999 0 0.8999"></polygon>
    </defs>
    <g id="Page-1" stroke="none" stroke-width="1" fill="none" fill-rule="evenodd">
        <g id="Group-3" transform="translate(-175.000000, -1.000000)">
            <g id="Page-1" transform="translate(175.000000, 0.000000)">
                <path d="M401.772,191.448 L433.525,143.299 C436.04,139.222 438.274,135.145 440.226,131.066 C442.178,126.989 443.935,123.128 445.497,119.484 L446.668,119.484 C446.581,120.353 446.473,121.762 446.343,123.714 C446.213,125.666 446.082,127.943 445.952,130.546 C445.822,133.148 445.692,135.881 445.562,138.744 C445.432,141.607 445.322,144.385 445.237,147.073 C445.149,149.763 445.084,152.17 445.041,154.295 C444.997,156.422 444.976,158.048 444.976,159.175 L444.976,191.448 L401.772,191.448 Z M507.05,191.448 L484.146,191.448 L484.146,71.856 L447.189,71.856 L366.376,194.701 L366.376,222.68 L444.976,222.68 L444.976,262.11 L484.146,262.11 L484.146,222.68 L507.05,222.68 L507.05,191.448 Z M268.646,138.419 C269.512,130.22 270.943,123.388 272.94,117.923 C274.935,112.457 277.515,108.338 280.683,105.56 C283.849,102.785 287.731,101.396 292.33,101.396 C301.352,101.396 307.836,106.884 311.785,117.858 C315.732,128.834 317.706,145.208 317.706,166.983 C317.706,188.845 315.732,205.199 311.785,216.043 C307.836,226.889 301.352,232.31 292.33,232.31 C283.133,232.31 276.669,226.844 272.94,215.913 C269.209,204.982 267.344,188.673 267.344,166.983 C267.344,156.139 267.777,146.617 268.646,138.419 L268.646,138.419 Z M353.623,125.601 C350.933,113.456 346.856,103.175 341.39,94.759 C335.925,86.345 329.113,79.924 320.959,75.499 C312.804,71.075 303.261,68.862 292.33,68.862 C280.618,68.862 270.64,71.097 262.399,75.564 C254.156,80.034 247.434,86.475 242.229,94.889 C237.023,103.305 233.227,113.586 230.842,125.731 C228.455,137.878 227.263,151.627 227.263,166.983 C227.263,182.339 228.585,196.047 231.232,208.105 C233.878,220.165 237.89,230.403 243.27,238.816 C248.648,247.232 255.415,253.652 263.571,258.076 C271.724,262.501 281.311,264.713 292.33,264.713 C304.042,264.713 314.04,262.501 322.326,258.076 C330.609,253.652 337.376,247.232 342.626,238.816 C347.875,230.403 351.691,220.165 354.078,208.105 C356.463,196.047 357.657,182.339 357.657,166.983 C357.657,151.542 356.311,137.748 353.623,125.601 L353.623,125.601 Z M108.191,191.448 L139.944,143.299 C142.459,139.222 144.694,135.145 146.646,131.066 C148.598,126.989 150.355,123.128 151.916,119.484 L153.087,119.484 C153,120.353 152.892,121.762 152.762,123.714 C152.632,125.666 152.502,127.943 152.372,130.546 C152.242,133.148 152.111,135.881 151.981,138.744 C151.851,141.607 151.741,144.385 151.656,147.073 C151.569,149.763 151.503,152.17 151.461,154.295 C151.416,156.422 151.396,158.048 151.396,159.175 L151.396,191.448 L108.191,191.448 Z M213.469,191.448 L190.566,191.448 L190.566,71.856 L153.608,71.856 L72.795,194.701 L72.795,222.68 L151.396,222.68 L151.396,262.11 L190.566,262.11 L190.566,222.68 L213.469,222.68 L213.469,191.448 Z" id="Fill-1" fill="#404E62"></path>
                <path d="M401.772,191.448 L433.525,143.299 C436.04,139.222 438.274,135.145 440.226,131.066 C442.178,126.989 443.935,123.128 445.497,119.484 L446.668,119.484 C446.581,120.353 446.473,121.762 446.343,123.714 C446.213,125.666 446.082,127.943 445.952,130.546 C445.822,133.148 445.692,135.881 445.562,138.744 C445.432,141.607 445.322,144.385 445.237,147.073 C445.149,149.763 445.084,152.17 445.041,154.295 C444.997,156.422 444.976,158.048 444.976,159.175 L444.976,191.448 L401.772,191.448 Z M507.05,191.448 L484.146,191.448 L484.146,71.856 L447.189,71.856 L366.376,194.701 L366.376,222.68 L444.976,222.68 L444.976,262.11 L484.146,262.11 L484.146,222.68 L507.05,222.68 L507.05,191.448 Z M268.646,138.419 C269.512,130.22 270.943,123.388 272.94,117.923 C274.935,112.457 277.515,108.338 280.683,105.56 C283.849,102.785 287.731,101.396 292.33,101.396 C301.352,101.396 307.836,106.884 311.785,117.858 C315.732,128.834 317.706,145.208 317.706,166.983 C317.706,188.845 315.732,205.199 311.785,216.043 C307.836,226.889 301.352,232.31 292.33,232.31 C283.133,232.31 276.669,226.844 272.94,215.913 C269.209,204.982 267.344,188.673 267.344,166.983 C267.344,156.139 267.777,146.617 268.646,138.419 L268.646,138.419 Z M353.623,125.601 C350.933,113.456 346.856,103.175 341.39,94.759 C335.925,86.345 329.113,79.924 320.959,75.499 C312.804,71.075 303.261,68.862 292.33,68.862 C280.618,68.862 270.64,71.097 262.399,75.564 C254.156,80.034 247.434,86.475 242.229,94.889 C237.023,103.305 233.227,113.586 230.842,125.731 C228.455,137.878 227.263,151.627 227.263,166.983 C227.263,182.339 228.585,196.047 231.232,208.105 C233.878,220.165 237.89,230.403 243.27,238.816 C248.648,247.232 255.415,253.652 263.571,258.076 C271.724,262.501 281.311,264.713 292.33,264.713 C304.042,264.713 314.04,262.501 322.326,258.076 C330.609,253.652 337.376,247.232 342.626,238.816 C347.875,230.403 351.691,220.165 354.078,208.105 C356.463,196.047 357.657,182.339 357.657,166.983 C357.657,151.542 356.311,137.748 353.623,125.601 L353.623,125.601 Z M108.191,191.448 L139.944,143.299 C142.459,139.222 144.694,135.145 146.646,131.066 C148.598,126.989 150.355,123.128 151.916,119.484 L153.087,119.484 C153,120.353 152.892,121.762 152.762,123.714 C152.632,125.666 152.502,127.943 152.372,130.546 C152.242,133.148 152.111,135.881 151.981,138.744 C151.851,141.607 151.741,144.385 151.656,147.073 C151.569,149.763 151.503,152.17 151.461,154.295 C151.416,156.422 151.396,158.048 151.396,159.175 L151.396,191.448 L108.191,191.448 Z M213.469,191.448 L190.566,191.448 L190.566,71.856 L153.608,71.856 L72.795,194.701 L72.795,222.68 L151.396,222.68 L151.396,262.11 L190.566,262.11 L190.566,222.68 L213.469,222.68 L213.469,191.448 Z" id="Fill-3" fill="#313D4F"></path>
                <g id="Group-7" transform="translate(150.000000, 0.901000)">
                    <mask id="mask-2" fill="white">
                        <use xlink:href="#path-1"></use>
                    </mask>
                    <g id="Clip-6"></g>
                    <path d="M270.4569,26.2892 L275.4599,12.9382 C276.1229,10.9482 276.7559,8.7482 277.3589,6.3372 L279.4689,12.9382 L284.4109,26.2892 L270.4569,26.2892 Z M297.1299,44.8542 L279.9509,0.6112 L274.9479,0.6112 L257.7379,44.8542 L263.3439,44.8542 L268.5879,31.2022 L286.0689,31.2022 L291.3729,44.8542 L297.1299,44.8542 Z M232.7269,22.1902 L251.8649,0.7922 L245.5659,0.7922 L226.1259,22.1302 L226.1259,0.7922 L220.5809,0.7922 L220.5809,44.8542 L226.1259,44.8542 L226.1259,22.5222 L246.0479,44.8542 L252.7389,44.8542 L232.7269,22.1902 Z M183.1519,24.2402 L189.0289,24.2402 C193.2679,24.2402 196.2719,24.8232 198.0399,25.9882 C199.8079,27.1532 200.6929,29.1422 200.6929,31.9552 C200.6929,34.8292 199.8439,36.9032 198.1459,38.1792 C196.4479,39.4552 193.7099,40.0932 189.9329,40.0932 L183.1519,40.0932 L183.1519,24.2402 Z M202.2749,22.4012 C199.5119,20.4122 195.3179,19.4172 189.6919,19.4172 L183.1519,19.4172 L183.1519,5.6742 L203.7669,5.6742 L203.7669,0.7922 L177.6059,0.7922 L177.6059,44.8542 L190.5059,44.8542 C195.8899,44.8542 199.8889,43.7902 202.5009,41.6602 C205.1129,39.5302 206.4189,36.2952 206.4189,31.9552 C206.4189,27.5752 205.0369,24.3902 202.2749,22.4012 L202.2749,22.4012 Z M125.2589,44.8542 L131.4369,44.8542 L155.7289,8.1762 L155.9999,8.1762 C155.9399,9.0002 155.8389,10.8032 155.6989,13.5862 C155.5579,16.3692 155.4879,18.8052 155.4879,20.8942 L155.4879,44.8542 L160.6719,44.8542 L160.6719,0.7922 L154.4929,0.7922 L130.2619,37.2592 L129.9899,37.2592 C130.0909,36.4162 130.1909,34.5882 130.2919,31.7742 C130.3919,28.9612 130.4429,26.7012 130.4429,24.9932 L130.4429,0.7922 L125.2589,0.7922 L125.2589,44.8542 Z M108.1429,0.7922 L102.5369,0.7922 L102.5369,39.9122 L84.8759,39.9122 L84.8759,0.7922 L79.3309,0.7922 L79.3309,39.9122 L61.7299,39.9122 L61.7299,0.7922 L56.1839,0.7922 L56.1839,44.8542 L108.1429,44.8542 L108.1429,0.7922 Z M10.3159,9.5172 C12.7879,6.4932 16.4139,4.9812 21.1959,4.9812 C25.9179,4.9812 29.4939,6.4732 31.9259,9.4572 C34.3569,12.4402 35.5729,16.8762 35.5729,22.7632 C35.5729,28.6702 34.3469,33.1302 31.8959,36.1442 C29.4439,39.1582 25.8579,40.6652 21.1359,40.6652 C16.3939,40.6652 12.7879,39.1382 10.3159,36.0842 C7.8449,33.0302 6.6089,28.5902 6.6089,22.7632 C6.6089,16.9562 7.8449,12.5412 10.3159,9.5172 L10.3159,9.5172 Z M36.1149,6.1112 C32.5589,2.1032 27.5859,0.0982 21.1959,0.0982 C14.6259,0.0982 9.5779,2.0732 6.0519,6.0212 C2.5249,9.9692 0.7619,15.5292 0.7619,22.7022 C0.7619,29.9362 2.5349,35.5372 6.0819,39.5052 C9.6279,43.4732 14.6459,45.4572 21.1359,45.4572 C27.5449,45.4572 32.5329,43.4382 36.0999,39.3992 C39.6659,35.3612 41.4499,29.8152 41.4499,22.7632 C41.4499,15.6702 39.6709,10.1202 36.1149,6.1112 L36.1149,6.1112 Z" id="Fill-5" fill="#313D4F" mask="url(#mask-2)"></path>
                </g>
                <path d="M91.1331,305.5192 L95.1371,305.5192 C97.9071,305.5192 99.9451,306.0222 101.2511,307.0262 C102.5571,308.0312 103.2101,309.5452 103.2101,311.5682 C103.2101,313.8072 102.5071,315.4322 101.1001,316.4442 C99.6941,317.4562 97.4261,317.9622 94.2981,317.9622 L91.1331,317.9622 L91.1331,305.5192 Z M95.5031,302.1392 L87.1721,302.1392 L87.1721,333.6132 L91.1331,333.6132 L91.1331,321.3632 L94.7501,321.3632 C98.7391,321.3632 101.8321,320.5062 104.0281,318.7912 C106.2241,317.0762 107.3221,314.6112 107.3221,311.3962 C107.3221,305.2252 103.3821,302.1392 95.5031,302.1392 L95.5031,302.1392 Z M71.6051,305.6272 L81.3791,305.6272 L81.3791,302.1392 L57.7841,302.1392 L57.7841,305.6272 L67.6231,305.6272 L67.6231,333.6132 L71.6051,333.6132 L71.6051,305.6272 Z M53.3911,306.8972 L54.9841,303.5382 C52.5151,302.3042 49.6161,301.6872 46.2861,301.6872 C43.1861,301.6872 40.4921,302.3472 38.2031,303.6682 C35.9131,304.9882 34.1701,306.8682 32.9721,309.3082 C31.7731,311.7482 31.1741,314.5902 31.1741,317.8332 C31.1741,322.9992 32.4261,326.9932 34.9311,329.8132 C37.4351,332.6332 41.0051,334.0432 45.6411,334.0432 C47.2481,334.0432 48.6691,333.9532 49.9031,333.7742 C51.1371,333.5952 52.4221,333.2612 53.7571,332.7732 L53.7571,329.3292 C50.9581,330.1612 48.4391,330.5772 46.2001,330.5772 C42.7271,330.5772 40.0501,329.4762 38.1701,327.2732 C36.2901,325.0702 35.3501,321.9382 35.3501,317.8762 C35.3501,313.9442 36.3191,310.8442 38.2571,308.5762 C40.1941,306.3082 42.8561,305.1752 46.2431,305.1752 C48.4961,305.1752 50.8791,305.7492 53.3911,306.8972 L53.3911,306.8972 Z" id="Fill-8" fill="#404E62"></path>
                <path d="M551.819,320.3518 L555.393,310.8148 C555.866,309.3938 556.318,307.8228 556.749,306.1008 L558.256,310.8148 L561.786,320.3518 L551.819,320.3518 Z M570.871,333.6128 L558.6,302.0098 L555.027,302.0098 L542.734,333.6128 L546.738,333.6128 L550.484,323.8608 L562.97,323.8608 L566.759,333.6128 L570.871,333.6128 Z M537.393,302.1398 L533.432,302.1398 L533.432,315.4438 L517.286,315.4438 L517.286,302.1398 L513.325,302.1398 L513.325,333.6128 L517.286,333.6128 L517.286,318.9308 L533.432,318.9308 L533.432,333.6128 L537.393,333.6128 L537.393,302.1398 Z M505.379,330.1258 L491.752,330.1258 L491.752,318.8878 L504.583,318.8878 L504.583,315.4438 L491.752,315.4438 L491.752,305.6268 L505.379,305.6268 L505.379,302.1398 L487.791,302.1398 L487.791,333.6128 L505.379,333.6128 L505.379,330.1258 Z M458.899,330.0818 C460.721,326.9388 462.368,322.9858 463.84,318.2208 C465.31,313.4558 466.182,309.2868 466.455,305.7128 L473.581,305.7128 L473.581,330.0818 L458.899,330.0818 Z M481.525,330.0818 L477.52,330.0818 L477.52,302.1398 L462.968,302.1398 C462.695,306.8468 461.784,311.7768 460.234,316.9288 C458.684,322.0818 456.846,326.4658 454.723,330.0818 L452.29,330.0818 L452.29,341.9008 L456.079,341.9008 L456.079,333.6128 L477.736,333.6128 L477.736,341.9008 L481.525,341.9008 L481.525,330.0818 Z M440.598,298.0168 C441.947,296.9478 442.729,295.2508 442.945,292.9258 L439.285,292.9258 C439.127,294.3318 438.693,295.3508 437.983,295.9828 C437.272,296.6138 436.178,296.9298 434.7,296.9298 C433.078,296.9298 431.94,296.6358 431.287,296.0468 C430.634,295.4588 430.243,294.4188 430.114,292.9258 L426.498,292.9258 C426.641,295.2938 427.34,297.0018 428.596,298.0488 C429.852,299.0968 431.858,299.6208 434.613,299.6208 C437.254,299.6208 439.249,299.0858 440.598,298.0168 L440.598,298.0168 Z M421.482,333.6128 L425.895,333.6128 L443.246,307.4138 L443.44,307.4138 C443.397,308.0028 443.325,309.2898 443.225,311.2778 C443.124,313.2658 443.074,315.0058 443.074,316.4988 L443.074,333.6128 L446.777,333.6128 L446.777,302.1398 L442.363,302.1398 L425.055,328.1878 L424.861,328.1878 C424.933,327.5848 425.005,326.2798 425.077,324.2698 C425.148,322.2608 425.184,320.6458 425.184,319.4258 L425.184,302.1398 L421.482,302.1398 L421.482,333.6128 Z M397.045,320.3518 L400.619,310.8148 C401.093,309.3938 401.545,307.8228 401.975,306.1008 L403.482,310.8148 L407.013,320.3518 L397.045,320.3518 Z M416.097,333.6128 L403.827,302.0098 L400.253,302.0098 L387.961,333.6128 L391.965,333.6128 L395.711,323.8608 L408.197,323.8608 L411.986,333.6128 L416.097,333.6128 Z M382.62,302.1398 L378.659,302.1398 L378.659,315.4438 L362.513,315.4438 L362.513,302.1398 L358.552,302.1398 L358.552,333.6128 L362.513,333.6128 L362.513,318.9308 L378.659,318.9308 L378.659,333.6128 L382.62,333.6128 L382.62,302.1398 Z M338.139,330.1258 L324.512,330.1258 L324.512,318.8878 L337.342,318.8878 L337.342,315.4438 L324.512,315.4438 L324.512,305.6268 L338.139,305.6268 L338.139,302.1398 L320.551,302.1398 L320.551,333.6128 L338.139,333.6128 L338.139,330.1258 Z M310.926,302.1398 L306.965,302.1398 L306.965,315.4438 L290.819,315.4438 L290.819,302.1398 L286.858,302.1398 L286.858,333.6128 L290.819,333.6128 L290.819,318.9308 L306.965,318.9308 L306.965,333.6128 L310.926,333.6128 L310.926,302.1398 Z M249.998,320.3518 L253.572,310.8148 C254.045,309.3938 254.497,307.8228 254.928,306.1008 L256.435,310.8148 L259.965,320.3518 L249.998,320.3518 Z M269.05,333.6128 L256.779,302.0098 L253.206,302.0098 L240.913,333.6128 L244.917,333.6128 L248.663,323.8608 L261.149,323.8608 L264.938,333.6128 L269.05,333.6128 Z M235.12,302.1398 L231.202,302.1398 L231.202,330.0818 L215.465,330.0818 L215.465,302.1398 L211.504,302.1398 L211.504,333.6128 L235.163,333.6128 L235.163,341.9008 L238.974,341.9008 L238.974,330.1258 L235.12,330.1258 L235.12,302.1398 Z M176.67,333.6128 L181.083,333.6128 L198.435,307.4138 L198.629,307.4138 C198.585,308.0028 198.513,309.2898 198.413,311.2778 C198.313,313.2658 198.263,315.0058 198.263,316.4988 L198.263,333.6128 L201.965,333.6128 L201.965,302.1398 L197.552,302.1398 L180.244,328.1878 L180.05,328.1878 C180.122,327.5848 180.193,326.2798 180.265,324.2698 C180.337,322.2608 180.373,320.6458 180.373,319.4258 L180.373,302.1398 L176.67,302.1398 L176.67,333.6128 Z M167.002,302.1398 L163.041,302.1398 L163.041,315.4438 L146.895,315.4438 L146.895,302.1398 L142.934,302.1398 L142.934,333.6128 L146.895,333.6128 L146.895,318.9308 L163.041,318.9308 L163.041,333.6128 L167.002,333.6128 L167.002,302.1398 Z M118.541,320.3518 L122.115,310.8148 C122.588,309.3938 123.04,307.8228 123.471,306.1008 L124.978,310.8148 L128.508,320.3518 L118.541,320.3518 Z M137.593,333.6128 L125.322,302.0098 L121.749,302.0098 L109.456,333.6128 L113.461,333.6128 L117.206,323.8608 L129.692,323.8608 L133.481,333.6128 L137.593,333.6128 Z" id="Fill-10" fill="#313D4F"></path>
                <path d="M232.9977,101.8011 C234.4997,98.4091 236.1507,95.2111 237.9767,92.2591 C238.0737,92.1021 238.1807,91.9571 238.2797,91.8011 L195.5657,91.8011 L195.5657,101.8011 L232.9977,101.8011 Z" id="Fill-12" fill="#D8912A"></path>
                <polygon id="Fill-14" fill="#D8912A" points="489.1464 91.8011 489.1464 101.8011 589.1864 101.8011 589.1864 233.0691 489.1464 233.0691 489.1464 243.0691 599.1864 243.0691 599.1864 91.8011"></polygon>
                <path d="M345.4214,91.8011 C345.4744,91.8811 345.5314,91.9551 345.5834,92.0361 C347.5424,95.0521 349.3234,98.3231 350.9504,101.8011 L421.5044,101.8011 L428.0824,91.8011 L345.4214,91.8011 Z" id="Fill-16" fill="#D8912A"></path>
                <path d="M351.3685,233.0689 C349.9925,236.0289 348.5025,238.8439 346.8685,241.4629 C346.5255,242.0139 346.1545,242.5329 345.7985,243.0689 L439.9765,243.0689 L439.9765,233.0689 L351.3685,233.0689 Z" id="Fill-18" fill="#D8912A"></path>
                <g id="Group-22" transform="translate(0.000000, 90.901000)">
                    <mask id="mask-4" fill="white">
                        <use xlink:href="#path-3"></use>
                    </mask>
                    <g id="Clip-21"></g>
                    <polygon id="Fill-20" fill="#D8912A" mask="url(#mask-4)" points="146.3958 142.1679 9.9998 142.1679 9.9998 10.8999 127.9238 10.8999 134.5028 0.8999 -0.0002 0.8999 -0.0002 152.1679 146.3958 152.1679"></polygon>
                </g>
                <path d="M239.0573,241.5102 C237.3743,238.8772 235.8293,236.0472 234.3953,233.0692 L195.5663,233.0692 L195.5663,243.0692 L240.1183,243.0692 C239.7653,242.5482 239.3993,242.0452 239.0573,241.5102" id="Fill-23" fill="#D8912A"></path>
            </g>
        </g>
    </g>
</svg>